<svg stroke-miterlimit="10" viewBox="0 0 1024 1024" xml:space="preserve" xmlns="http://www.w3.org/2000/svg" xmlns:vectornator="http://vectornator.io" clip-rule="evenodd" stroke-linecap="round" stroke-linejoin="round">
  <g>
    <path d="M164 481s1-111 90-162c51-29 53-15 53-15s31 12 18 51c-12 39-161 126-161 126ZM235 150l-18 24s4 38 25 40 27-6 27-6l-34-58ZM122 276l21 23M120 268c3 11 7 25 16 32 2 3 5 6 9 5 2 0 4-2 4-4 1-2 0-4-1-6-1-7-2-11-8-16M383 427c-4 1-6 5-7 9-5 9-7 28 5 34 3 2 7 4 11 3 3-1 4-5 4-8 1-3 0-6-1-9 0-3-3-5-3-8s4-4 4-7c1-3 0-6-1-8-4-3-8-6-12-6ZM397 550c-4 2-6 5-7 8-1 4 1 7 3 10 5 9 18 12 27 13 3 1 7 3 10 1s5-6 5-10c1-3 0-6-3-8-2-2-7-2-9-4-3-1-3-5-6-7l-9-1c-4 0-8-3-11-2ZM1000 271c-5-4-7 9-10 14-4 5-9 7-8 15 0 8 6 10 11 15 2 2 3 8 6 7 4-1 3-7 4-11s-1-14-1-18c-1-7 4-18-2-22ZM262 116c-10 19 2 34 18 45l12 7 16 16 8 5 9 1c2 1 4 5 7 5 3 1 7 0 9-2 3-2 4-7 6-10 2-6 2-13 3-20l3-8c2-3 2-7 5-10 2-3 7-2 9-5 8-9-3-21-11-25l-9-1c-14 0-18 9-22 21-2 2-1 6-3 8s-6 3-9 2c-3-2-3-7-4-10l-3-9c-5-8-14-10-23-13-4-1-8-4-12-3-4 0-7 3-9 6ZM334 924c-3 2-7-2-9-4s-1-6-1-9l-4-9c-6-10-19-13-26-22-3-5-4-11-6-16l-9-12c-4-7-7-16-12-22-6-6-13-9-15-18-3-10-1-25-4-34-3-8-11-15-17-20l-11-13c-5-5-13-9-17-16-3-5-3-23-3-29l2-7-5-8c-6-7-13-5-21-8-9-3-17-12-17-22 1-19 9-32 21-46l11-10c7-4 14-3 21-4 8-1 17-3 25-6l35-13c7-3 13-6 21-7h17l16 1c13 1 26-3 37 5 10 7 15 16 22 24s22 22 22 32l-3 16-2 7c-2 4-7 6-11 9-8 4-14 9-15 18 0 8 1 17 4 25 1 2 3 4 3 7 2 12-11 16-14 27-3 12 3 23 3 34 0 15-13 24-19 36-3 5-9 18-10 23v23c1 10 6 20 5 30 0 7-3 12-5 18l-2 10c-2 4-3 9-7 10ZM840 391c-2-19-2-28 13-40 5-4 8-6 14-8 7-3 13-2 11-13-3-13-24-9-33-8-7 1-14 7-20 7-11 0-13-15-15-22-4-16-9-32-11-48l-2-13-4-14c-1-8 0-18 1-27 1-7 3-10 5-17l6-22 3-7c1-6-4-16-8-19-3-3-8-2-13-3l-12-7c-4-6-2-9-5-15-4-6-7-7-13-11-11-7-20-15-33-17-8-2-17 0-25 1-10 1-19-2-28-1-5 1-10 3-14 2-12-1-11-12-19-18l-7-2-7 5-6 5c-7 5-12 10-20 13l-14 4c-11 3-23 7-35 9l-13 2c-14 4-27 11-42 14-7 2-15 3-23 3l-12 1c-5 2-11 13-16 15l-7-2c-6-1-8-3-14-3-4-1-9 1-13 1h-7l-7 4-18 6c-8 4-13 15-19 22l-3 6c-1 2 0 4 1 7 3 7 12 9 13 16 1 6-3 13-4 18-3 8-4 18-4 26 1 20 18 27 27 43 3 6 6 17 13 21 6 3 17-1 23-3l44-19 24-13c21-11 45-20 69-26 21-5 40-8 60 0 9 4 16 11 24 15 13 8 28 14 37 27 9 11 9 26 16 39 6 11 16 16 26 24 13 10 25 23 42 27 19 4 38-6 55-11M389 14c-2 0-1-5-4-6-3 0-5 3-7 5l-8 7c-5 9-8 20-2 28 11 14 26 13 40 5 6-3 12-9 18-9 11-1 11 8 20 11 2 1 10 0 12-1 10-3 19-10 22-21 3-13-6-19-18-22-7-2-15-2-23-2-10-1-20-2-31 0-6 1-12 6-19 5Z" fill-rule="evenodd"/>
    <path d="m384 295-7 21c-2 19 7 38 12 56 3 9 5 18 12 26 11 15 31 19 38 36 3 8 0 12-3 19-6 12-17 25-13 40 4 13 11 25 16 37l4 19c4 12 11 22 17 34 4 8 8 18 15 25l9 8c6 7 8 16 16 22 8 5 20 5 29 8s18 7 27 8c11 1 21 0 31-3l12-1 17-5c7-1 14-1 20-3 5-2 14-6 19-10 7-5 12-13 17-20 7-9 17-18 27-24 15-9 31-15 47-19 8-3 19-2 27-6 7-3 14-12 18-19 3-5 10-17 10-23l-3-10c-2-9-3-19-6-28-2-9-5-13-4-22 0-10 6-32-2-39-3-3-8-2-12-4-7-2-15-5-19-12-4-5-5-12-7-18-4-9-15-23-24-27-5-2-8-1-14-1l-14-3-17-2c-5-1-7 0-11-3-13-9-1-29-13-36-6-4-15-2-21-1l-17 3c-8 3-17 9-26 9-8 0-13-10-18-15-8-8-19-15-29-19-18-7-37-4-55 1l-16 4c-14 2-29 3-43 7l-31 8c-4 1-9 4-13 3-6-2-7-12-5-18l3-3Z" fill-rule="evenodd"/>
    <path d="M519 289h-5 12-7Zm-5 0Zm-6 1Zm-7 1-2 1 2-1Zm-2 1-7 1-8 2h3l12-3Zm-15 3-8 2-15 2-16 3 19-3 12-2 8-2Zm-39 7h-1l-5 1 6-1Zm-6 1-5 1-10 3 10-3 5-1Zm87-14Zm7 1 2 1v-1h-2Zm2 1 17 5a81 81 0 0 1-14-5h-3Zm29 13 5 4-1-1-4-3Zm-180-9-2 1h2l-1 2-1 4-2 4-1 3-2 9c-1 6 0 12 1 18 2 11 6 21 10 31l7 23 7 10c8 9 18 14 27 22 4 3 7 6 9 11l2 4c1 5-2 9-4 14l-2 5c-6 11-15 23-11 37 3 13 11 25 15 38l5 18 4 10 10 20 13 23 6 8 9 7c5 7 7 15 14 20l9 5 21 4c9 3 18 8 27 8h21l11-3 12-1 17-5 12-1 10-3a92 92 0 0 0 18-10c7-6 11-13 16-20 8-9 17-17 27-23a169 169 0 0 1 47-19c8-3 18-2 26-6l9-6 10-14 5-10c2-3 4-7 4-11l-2-8-1-5-4-22c-2-7-6-14-6-22l1-13 2-15c0-5-1-9-3-13-3-5-9-4-14-6-7-2-14-5-18-11s-6-13-8-19l-4-8-6-8c-3-4-7-7-12-10l-8-2-9-1-10-2-13-1-8-2h-6l-5-3c-7-5-6-14-6-21v-4c-1-5-2-9-7-11l-4-1c-6-1-12 1-17 2-7 1-14 1-20 4l-15 6h-9c-6-1-10-7-14-11l-1-2c5 6 9 13 17 14l8-1 13-6 5-1c6-2 11-3 17-3 6-2 14-3 20-1 5 3 6 8 7 13 0 7-1 16 4 21l3 3 4 2 6 1 10 1 11 2 10 2h9l8 2c5 3 9 8 13 12l8 14c3 6 4 14 9 19 4 6 11 10 18 12 5 1 11 0 14 5 2 4 2 10 2 15l-1 13c-1 4-2 8-1 12 0 8 4 16 5 24l4 21 2 6 2 7a144 144 0 0 1-11 24l-10 12-7 5c-9 4-19 3-27 5a212 212 0 0 0-48 20c-9 6-18 14-25 23-5 6-10 14-16 19l-10 7a91 91 0 0 1-15 6l-16 2-16 4-12 2-11 2-21 1c-9-1-18-6-27-8l-21-5-9-4c-6-5-8-14-14-20l-8-8c-3-2-5-4-6-7-6-8-9-17-14-25l-9-18-5-10-4-19c-4-12-11-23-15-36l-1-7c-1-6 1-11 4-17l9-16 2-4c2-5 4-9 2-14-2-7-8-13-14-18l-19-14c-3-2-6-5-8-9-5-8-8-18-11-28l-9-29-2-18c1-4 1-8 3-11v-2l5-12h-1Zm-3 15 1 2-1-2Zm1 2Zm-2-6v-3 3Zm0-3v-2 2Zm0-2v-1 1Zm0-1 1-1-1 1Zm1-1Zm1-2v-1 1Zm-2 9v1-1Zm42 2-17 4 15-4h2Zm-17 4-4 1 4-1Zm-4 1-3 1a43 43 0 0 0 3-1Zm-18 0Zm1 1Zm1 1Zm0 0Zm7 1Z"/>
    <path d="M185 107c-7 4-13 10-18 15-2 1-6 5-8 5-3 0-5-4-7-6-3-3-8-6-8-11-1-5 2-10 2-15 0-3-3-5-4-8l-1-5c-2-4-6-12-12-10-4 2-8 8-12 12-9 12-17 26-12 42 3 8 10 14 12 22v4c-1 4-3 6-6 9l-12 9c-6 3-13 6-15 14-2 7 1 16 5 22l4 3c2 4 3 8 7 11 3 1 7 4 11 3s9-7 14-6c4 2 3 7 7 8 6 2 14-4 16-9 2-3 2-7 4-9 4-4 10-2 14-4s6-6 7-10c2-7-2-14-5-21-2-6-3-16-1-22 4-10 16-15 24-22 3-3 8-8 7-14-2-7-10-12-17-8l-9 8" fill-rule="evenodd"/>
  </g>
</svg>
