<svg stroke-miterlimit="10" viewBox="0 0 1024 1024" xml:space="preserve" xmlns="http://www.w3.org/2000/svg" xmlns:vectornator="http://vectornator.io" clip-rule="evenodd" stroke-linecap="round" stroke-linejoin="round">
  <g fill-rule="evenodd">
    <path d="M321 538c-9 5-14 3-22 5-17 2-29 8-40 21-3 3-5 6-6 10-1 8 17 17 12 24-2 2-7 3-10 4-9 5-22 20-19 31 1 4 3 6 3 10 2 8 0 22 11 24 5 1 12 3 18 2l12-2c3 1 8-1 10 1 4 4 3 13 4 18 2 9 6 19 12 26s13 10 21 14l30 13 24 10c6 3 11 7 17 8 10 3 20 1 29 5 6 1 9 6 14 8 7 3 17 5 25 6h7l5 1c5-1 8-5 12-6l6-3 6-5c4-4 9-8 12-13 2-3 2-7 3-10l4-10c1-5-4-17-5-21-4-16 8-37 25-39l19-1 15 4h18c11 2 23-3 34-1 2 0 3 2 4 3 9 7 2 14 6 23 4 7 20 3 24-3 3-6 6-16 4-23l-4-5-1-7-8-9c-3-7-6-16-7-23l-5-21-3-13v-30c0-5 1-9-1-14-5-10-14-17-24-23l-12-4-15-9-12-4-7-5c-9-2-20-3-30-2-9 0-18 4-27 6-5 1-10 1-14 3-9 4-26 13-36 12-5-1-7-8-10-11-3-5-8-8-14-9l-19-1c-20 0-38 7-58 13-14 5-23 14-37 22ZM377 229c-12-4-27 12-35 19-9 8-19 15-26 25l-11 20c-2 4-5 9-6 15v9l-5 37c-2 11 2 13 4 23 2 13-1 35 9 45 11 10 26 12 38 19l38 21c4 2 6 5 11 6 15 4 29 2 43-1 13-3 29-4 41-10l11-6 23-7 7-1c8-5 13-17 17-25 2-4 6-8 6-12 0-10-9-21-8-30 1-10 12-16 14-26 1-6-5-10-6-16-2-9 3-17 2-26l-6-15c-8-20-21-24-38-35l-20-14a90 90 0 0 0-58-14c-9 1-14 5-23 10M577 163c-1-1-3-6-5-7-11-5-31 15-38 22-4 4-8 11-3 17 5 8 17 11 26 14 19 6 39 7 59 9 8 1 21-1 27 5 7 6 5 26 7 34 3 10 15 14 21 20 5 4 8 10 14 14 9 6 21 7 32 8l42 11c8 3 16 5 24 12 5 4 10 11 14 17 6 7 12 16 15 25l4 9c8 13 23 19 38 17 4 0 9-1 13-4l12-11c22-27 16-56 19-88 3-19 10-39 8-59-1-13-8-27-15-37l-6-7c-5-8-7-17-10-26-8-21-32-41-51-49-32-13-67-11-101-6-32 4-64 11-95 24M857 602c-9-5-28 10-27 20 1 8 8 12 15 14 3 1 5 3 9 3 16 2 26-9 27-24 1-8 0-20-11-20M859 753c-3-2-8-4-12-4-11 1-24 21-24 32 1 16 16 28 25 40 6 7 9 19 18 23 7 3 13 2 19-1 14-9 16-29 12-44l-5-12c-4-8-13-7-18-13-4-4-3-10-6-14-2-3-6-5-9-7ZM791 693c-7-4-21 5-27 8-3 2-9 3-11 6-3 3-3 8-3 11 0 10 10 17 20 18 5 1 12 0 17-1h6c2 1 0 4 0 5 0 3 6 5 8 4 8 0 17-8 17-16-1-7-6-10-9-15-3-4-2-6-6-9-2-2-14-5-14-6-1-2 3-4 2-5ZM844 705c-1-7-5 0-6 0-7 6-15 24 0 27 9 1 18-3 24-9 2-2 5-8 3-11-6-6-20 0-21-7Z"/>
    <path d="M593 720c-3 0-6-2-9-1-4 0-10 7-12 10-3 5-5 14-4 19 0 4 2 7 3 10 2 4 1 7 4 10 7 11 24 5 30 18 1 1 5 7 3 9-3 2-17 0-21 0-11 0-21-7-31-12-6-3-15-3-22-4-5 0-11-3-16-2-15 4-29 22-29 36 0 6 0 14 6 17 8 3 25-1 32-4 5-2 9-6 15-7 12-2 24 5 36 7 18 4 37 0 52-11 5-4 17-16 18-22 1-3-1-9-1-12l-1-11c-1-5-5-9-7-15v-14c-1-3-7-9-9-10-10-8-25-8-37-11ZM674 704h-8c-5 2-21 8-16 16 4 7 21 14 28 9 3-2 9-11 10-14 4-9-1-14-10-14l-6 1c-1 1 1 2 2 2ZM360 891c-3-3-4-8-5-12l-8-23-6-19c-8-15-17-13-30-20-9-6-13-13-19-20-8-8-19-8-28-13-10-6-15-13-27-14s-25 1-36 3c-38 7-68 26-79 65-3 13-2 26-1 39 0 10-1 25 7 33 21 21 55 7 81 5 8-1 25-2 32 2l7 5c4 3 9 5 13 6 11 1 21-2 31-3h11l19-7 14-4c6-3 12-8 17-13 6-5 15-10 17-18l2-9M755 430c-2 2-5 1-8 1-6 0-17 0-18 8-1 12 13 19 21 24 3 3 3 4 6 5 6 1 12-3 17-5l13-2h2c2-2-3-5-5-7l-7-5-19-15c-1-1-1-5-2-4ZM766 376c-2-2-6-5-9-5l-6 4c-7 8 2 21 10 24l8 2 7 1c3 0 8 1 6-3-3-7-8-13-12-18-3-2-3-3-4-5Z"/>
  </g>
</svg>
