<svg stroke-miterlimit="10" viewBox="0 0 1024 1024" xml:space="preserve" xmlns="http://www.w3.org/2000/svg" xmlns:vectornator="http://vectornator.io" clip-rule="evenodd" stroke-linecap="round" stroke-linejoin="round">
  <g fill-rule="evenodd">
    <path d="M273 793c-3-30 3-63 7-93l3-25v-8c-5-11-25-4-35-10-5-3-8-9-13-14-7-8-12-17-18-26l-8-10c-7-10-9-20-14-31-3-7-6-8-5-16 1-10 14-26 9-37l-6-7c-4-2-13 1-17-1-4-3-4-10-5-15l-2-8c-1-15 18-19 16-34-1-8-9-16-15-21l-7-4c-5-6-4-11-5-19 0-2-2-6-1-8 1-3 11-9 13-10l13-13c5-5 12-9 15-14 9-13-3-30 0-44 1-6 3-12 7-17 5-7 12-11 15-20 2-6 2-13 5-19l4-7c3-1 5 1 8 1 6 2 12 5 19 5 2 0 6 1 8-1 3-2 4-6 5-9 1-8 0-12-3-19-1-3-5-6-3-9 1-3 7-2 10-3 9-1 18-2 26-6 13-5 21-16 31-24l8-5c10-3 21 1 31 2 20 1 42-3 62 2l12 5c3 1 5 4 9 5 2 1 5 0 7-2 6-4 6-14 12-19 7-7 21-7 31-6s16 8 23 14l19 11c12 7 25 10 37 15 8 4 17 11 24 17 6 5 11 12 16 18 10 10 21 18 32 27l9 9c11 6 33 6 40 16 3 5 4 16 5 21l5 23c3 13 17 18 17 32 1 7-4 21-1 28l7 8c5 3 12 3 16 7 3 3 4 6 6 10 5 6 8 12 11 19 5 11 5 22 5 34l1 17 9 25 10 33c2 4 6 13 4 18-2 3-4 6-8 7-4 2-8 1-12 0-15-2-23-12-30-23-13-21-14-44-17-67-2-18-1-34-14-48-11-11-26-16-37-27l-6-7c-2-2-4-6-7-6s-5 3-6 6 1 7 2 10l2 24c2 13 5 28 11 41 3 7 8 12 12 18l12 21a127 127 0 0 0 53 41c12 4 21 5 27 18 3 10-2 20 3 30 4 8 12 16 17 23 9 14 15 29 24 42l11 13c2 2 3 5 6 6 4 0 7-2 10-5l6-8c4-6 9-10 16-12 12-3 24 1 37-6 14-8 25-22 40-30 2-1 5-3 8-3 4 1 6 4 10 7l8 6c9 8 19 18 19 32-1 14-12 22-21 29-7 6-15 10-24 11-14 1-26-6-39-12-10-4-22-5-33-5l-11 1c-10 4-19 19-20 30-1 9 6 16 1 25-1 3-3 6-6 7-6 1-12-4-17-7l-16-14c-3-3-6-8-11-11-15-8-31 2-44 9-3 1-7 2-9 5-3 5-1 15 0 20l8 18c6 12 11 23 25 29 9 4 17 3 23 11 3 3 6 5 7 9 0 4-2 7-3 11-2 5-7 10-11 14a97 97 0 0 1-51 25h-12c-3-1-6-2-8-5-2-4-1-9-2-13-1-17 6-34 10-50 2-7 6-22-1-29l-11-5c-13-4-28 5-39 10-17 8-32 21-50 27-10 3-22 5-32 4l-24-5c-23-1-52-1-72 13-19 13-20 34-23 54-1 6-3 14-9 15-5 1-10 0-15-1l-21-2c-20 1-40 6-60 2-11-2-22-6-33-11-8-3-18-6-25-12-14-14-11-27-16-46-5-23-16-46-14-70"/>
    <path d="m938 571-12 1-10 5c-6 4-14 9-18 14-2 3-5 5-5 8 0 2 3 5 5 6l7 1c12 1 32 1 42-5 3-2 7-3 8-7 1-2-1-5-2-8-3-6-9-16-15-15ZM226 976c11-20 15-39 13-62 0-6 0-12-5-17l-8-4c-4-2-7-5-11-6-4-2-8-3-13-3-2-1-5 0-7-2-3-2-3-6-5-9l-4-7-2-12c-1-3 0-6-2-9s-5-5-9-6h-10c-15 2-28 13-39 22-17 13-27 32-35 52-7 17-11 34-12 53 0 7 0 14 2 21s6 13 10 19M107 321l3-20 7-12c8-14 16-31 29-41 5-3 9-9 15-9s10 4 15 7c5 2 9 6 14 7 6 0 13-2 19-5 11-5 18-16 26-25 14-16 29-35 50-43l12-2c7-1 13 2 19 0 7-2 13-7 19-12 15-10 29-27 32-45l1-14-4-10c-3-4-6-9-11-10-8-2-16 2-23 3-8 2-15 6-23 7-6 0-13 2-18-1s-7-10-11-15c-7-9-13-20-23-27a98 98 0 0 0-66-14c-12 2-24 8-35 12-21 9-41 19-56 36-4 4-13 14-15 19-6 17-3 31-1 48 0 10-2 21 0 32l5 31c4 14 9 25 11 39 2 26-7 48-18 71"/>
  </g>
</svg>
