<svg stroke-miterlimit="10" viewBox="0 0 1024 1024" xml:space="preserve" xmlns="http://www.w3.org/2000/svg" xmlns:vectornator="http://vectornator.io" clip-rule="evenodd" stroke-linecap="round" stroke-linejoin="round">
  <g fill-rule="evenodd">
    <path d="M90 677h-3v2c-2 0-4-3-5-3-6-3-14-11-16-17-2-3-1-7-1-11 0-7 0-14 2-21 3-8 9-14 13-22 4-9 7-17 9-27l1-15c-1-3-3-6-3-10l1-27 2-19v-10c2-9 10-18 12-28 2-6 0-18 0-24v-15l-3-11c-1-9 2-18 1-27l-2-11 2-12c2-10 10-16 14-24 2-4 3-8 2-11 0-4-2-5-1-9l5-8c4-6 8-15 9-22 1-6-2-19 5-22h16c10 1 25-2 34 5 6 4 7 11 11 16 6 8 13 13 11 24-1 5-4 11-7 15-4 6-13 11-9 20 5 13 24 13 34 22 4 4 1 11 1 16s4 9 4 14c1 7-2 15 1 21l13 20c2 3 5 8 5 12s-6 7-9 9c-8 5-15 13-23 19-2 1-7 2-7 4-1 4 9 12 11 14 11 13 25 22 38 32 5 4 17 2 16 9 0 3-4 7-5 9l-14 16-8 12-18 19-8 5c-13 10-28 16-42 24-14 9-27 18-43 24-4 2-9 1-13 2-7 2-14 7-19 11-6 4-6 8-14 10ZM254 283c-7 0-11 14-14 19-2 2-5 5-3 8 1 2 14 6 17 7 6 4 10 10 15 15l11 11c5 6 4 14 6 20 1 4 4 7 6 10 4 6 5 14 9 19 3 3 8 3 12 5 16 6 32 7 45-7l8-14c5-10 7-15 7-26 1-5 1-11-3-15s-18-9-19-14c-1-7 6-16 10-22 1-3 5-4 7-8v-21c0-3-3-6-4-8l-1-15-2-6c-5-14-31-11-44-13-3-1-7-1-10-3-4-2-5-7-11-7-10 2-18 10-26 15l-7 4-4 3c-2 2-7 3-9 6l-2 8-5 17v11c0 6-2 12-4 17"/>
    <path d="M321 207c4 0 8 3 11 3l10 3c5 1 9 6 12 9 13 10 22 21 28 36 2 4 0 9 2 13 3 7 18 7 22 1 3-4 3-8 2-13-3-11-14-16-24-21-3-2-7-5-8-8-6-13 5-38-17-39h-5l-8 2-16 8c-8 4-14 8-19 15M271 726l2 1-2-1-4-4c-5-1-12 2-17 4l-25 12c-12 5-24 8-35 16-5 3-18 13-19 19v4l1 14c0 4-1 9 1 13 3 5 7 6 8 11 4 15-1 20 14 30 14 9 29 11 32-10 3-18-4-45 12-59 5-5 9-1 14 1l15 5 6 4 6 2c5 4 4 6 12 7l7 1c4-1 16-8 17-12l-2-8-1-6c-4-8-16-8-23-10l-13-3-12-2c-2-2 2-5 3-6l6-7c2-2 6-4 6-8s-8-7-11-9l2 1ZM444 722l-5-6v-1 2c-3 1-8-9-9-10-4-6-17-18-17-25l1-8c1-2 3-2 4-5v-7c2-12-1-24-2-36-1-3 0-7-2-11-5-8-9-8-16-1-1 1-4 7-6 6-4-3-4-11-4-15 0-14-3-27-2-40 1-5 7-10 5-15-1-3-4-5-6-7-5-8-13-16-16-25v-4c-2-7-7-11-6-18 1-5 5-9 7-14l7-16 6-5 7-18c2-3 3-7 3-11 2-7-4-15 4-21 4-3 9-7 14-9l5-2 8-4h10l36-2 36-6c5-1 12-1 17-3l10-6 7-1c5-2 7-7 10-10 6-6 8-11 13-17l5-6 3-8c1-6 6-12 10-16 5-5 12-6 18-10 8-6 9-23 21-25 4-1 10-2 15-1 2 0 4 3 7 3h13c9-1 16-5 24-6h25c4-1 9-4 12-3 6 2 11 7 17 9 6 1 13 1 18 3l12 8c6 5 11 13 15 19l12 16 10 16 2 2 10 14c4 6 6 8 7 16l-1 13c0 3-4 4-5 7l-1 7v21c-1 7-5 13-6 20-1 6 0 13 1 18 1 3 4 5 4 8l1 19c1 7 4 14 3 21-1 6-7 8-9 14-5 17-8 36-11 54 0 2-2 3-3 5l-4 9c-3 9 0 21 2 30l5 8c2 3 2 17 0 20-3 5-9 6-14 9l-7 5-11 4-20 10c-8 5-14 13-23 17-4 2-8 1-12 4l-20 13-14 7-11 7-10 4-10 5-5 6c-7 5-19 7-27 9-6 1-11 6-17 8-5 2-11 7-16 8-5 0-10-2-15-1-4 1-5 4-8 6l-8 4c-5 2-10 12-16 10-4-1-8-6-11-8-6-4-12-7-16-12-5-7-5-16-7-24l-4-16c-1-3-1-7-3-10-3-3-6-8-11-8h-6c-3-3-3-8-5-11"/>
  </g>
</svg>
