<svg stroke-miterlimit="10" viewBox="0 0 1024 1024" xml:space="preserve" xmlns="http://www.w3.org/2000/svg" xmlns:vectornator="http://vectornator.io" clip-rule="evenodd" stroke-linecap="round" stroke-linejoin="round">
  <g fill-rule="evenodd">
    <path d="M222 822c0-9-5-7-8-12-4-4-5-9-7-14l-10-13-6-10c-2-4-1-7-5-11l-11-10c-2-4-1-5-4-8s-8-3-11-5l-10-14-4-1c-6-5-11-14-15-21-3-7 0-14-1-21-2-9-2-19-2-27v-13l-9-18c-5-8-12-5-20-7-6-1-17-18-17-24 2-8 11-20 18-24 5-3 12-2 18-4 5-2 8-6 12-8l6-3 15-9h10c10-3 21-5 32-4 6 1 13 2 20 1 4-1 7-4 12-4l15-3c4-2 3-3 8-4 3-2 10 1 11 4 3 8 2 18 5 26 2 4 6 6 7 11l4 14c2 7 9 16 7 24l-5 11c-3 8-2 16-6 24-6 13-16 24-21 38-3 12-1 23 0 35 1 8-2 18-4 26l-11 34c-2 5-5 9-5 15M272 521c-2-2-2 3-2 6s-1 7 1 10c1 3 6 3 9 3l21 4c5 2 7 6 11 9l3 1c2-1 3-9 3-11l2-7c-2-4-10-10-15-11-7-2-16-1-24-2-3 0-7 0-9-2ZM265 422l2-1-2-1-2-1c-2 2-1 6-1 9 0 7-3 20 4 25 4 3 16 6 21 5s15-13 19-8c5 4 5 12 6 17l5 17c4 10 8 20 10 30l2 12 4 10c2 6 4 13 8 18 8 15 25 26 39 34 16 10 34 2 52 1 7-1 15 0 23 1 6 0 12 2 18 1 15-2 27-12 41-18l17-8c13-5 26-8 38-15 7-4 10-10 16-15s15-8 22-11c3-1 6-1 8-3 2-1 10-12 11-15v-5c0-9-14-9-20-13l-3-2c-1-3 1-7 2-10l4-21c2-3 5-8 4-12 0-2-3-4-3-5l-9-12c-5-6-8-15-14-21-3-3-9-5-11-9-4-8-5-16-14-20-6-3-15-4-22-3l-5 3c-2 0-3 2-4 1l1-5c0-5 5-21 1-25-5-5-23-4-31-4h-10c-4-4 0-14-2-18l-4-4-3-2h-6c-9 1-18 4-25 9-5 4-2 6-4 9l-12 1c-3 0-4-2-7-4l-16-11-5-5-10-4c-3-2-6-6-11-4l-12 9c-5 2-11 3-15 6-11 7-21 17-34 20-3 1-4-4-6-6l-14-9-6-5-9-9c-5-3-24-3-29-1-4 1-13 8-12 13 0 6 7 14 11 18 3 2 7 4 8 7 7 12 11 25 15 38 5 12-1 16-12 22-2 0-10 9-10 9h3ZM92 464h-5l-1 2v-5l-1-6c1-9 1-21 6-29 6-11 16-22 24-31 6-6 14-11 18-18l3-8 5-10v-11c1-4 5-7 7-10 11-11 26-23 42-25 10-2 13 7 19 13 2 4 7 7 8 11 1 7-4 12-6 18-2 3-1 7-2 10l-6 12c-5 13-15 18-26 25l-31 20-16 10-13 13-15 11c-4 4-4 7-10 8ZM69 130c1 0 3-6-1-4l-1 3-8 13-20 30c-3 6-7 12-8 18l-1 20c-1 5-7 13-5 19 1 3 8 6 11 7 10 7 14 13 26 14 3 1 20 1 22-1s-2-12-2-15c-1-9 0-20 3-28 2-5 6-10 10-14s10-7 13-12c2-3 2-10 2-14v-8c-1-3-7-2-9-2-6 2-11 7-15 10l-5 5-2 3v1c-2-2-1-7-1-10l-1-11-1-10c-1-4-3-6-7-8 0 0-4-1-4-3l4-3ZM144 184c-9 4-14 13-20 21-1 2-5 6-2 9l5 2 12 10 5 4c5 5 5 18 14 19 4 1 17 2 20-1l1-7c2-8-2-17-8-23l-10-11-7-6M164 158c0-5-2 0-2 2v11c1 7 5 13 8 19 4 7 7 14 12 20 12 12 29 18 46 20h17c2-3-3-8-4-11l-2-6-5-9-2-8c-1-3-2-8 0-11 4-7 19-6 25-12 1-1 5-3 5-5 5-11 2-22 3-32 0-5 2-9 1-13l-3-4c-7-7-18-6-27-3-8 4-15 9-18 18 0 3 1 9-1 11l-13 1c-8 2-15 3-23 3h-12c-6 2-11 7-15 11l-5 8"/>
    <path d="M278 185c1 4-13 1-15 2-6 1-19 10-19 17-2 8-3 17 0 24 3 6 8 13 12 17l7 10-2 9c-1 9 1 21 9 27a193 193 0 0 0 59 11l5 1c8-1 15-10 21-15 12-10 23-20 36-29l12-8c7-4 14-5 22-7 20-5 43-6 64 0l16 7c9 3 17 4 23 12 3 4 1 10 1 14v12l-2 14c0 7 1 16 3 23 3 6 8 12 12 17 3 5 5 10 10 13l12 9 9 10c9 6 25 9 36 5l4-4c4-5 9-13 15-16 7-4 17-4 23-9l2-6 3-4c0-17-13-13-23-19-14-9-25-21-28-37-1-7 0-17 1-23l5-17 2-15c0-7-9-15-8-19 3-7 22-8 17-18 0-2-2-3-3-5-4-8-15-16-23-20-6-2-14-1-18-7-3-4-2-8-3-14 0-9-7-15-17-16l-15 1-26 2c-4 1-7 4-11 4h-13c-13-2-10-19-21-24-13-6-27 3-39 9-7 4-15 7-22 12-5 3-9 7-15 9l-45 24-11 4-8 4c-9 4-20 5-30 7l-19 1c-1 0-6-1-5 1ZM775 290c1-3 1-5-4-3-3 2-7 8-9 11-4 7-6 14 4 18 12 5 24-2 32-12 2-2 6-9 5-12s-7-6-9-7M46 286c-1 0-2-2-3-1l5 4 3 4c2 5 5 7 9 11s6 10 11 12c3 1 7 1 10-1 2-3 1-4 2-7 1-11-8-23-19-24l-18 2ZM897 290c4 0-4 1-4 4v6l-4 10-14 36c-8 19-16 39-28 55-6 9-15 14-20 23-4 8-3 8-5 16l-8 31c-2 6-11 33-4 37 10 7 34 5 44-1l11-12 2-2v-4c1-9-1-19 1-28 1-4 5-7 7-10l7-16c4-7 7-16 9-24 1-3 0-5 3-9 6-10 17-16 23-25 4-5 5-12 8-18 2-5 5-10 4-15-1-4-8-9-10-11l-11-11c-3-5-4-8-10-11"/>
  </g>
</svg>
