<?xml version="1.0"?>
<!-- Generated by SVGo -->
<svg width="1620" height="2160"
     xmlns="http://www.w3.org/2000/svg"
     xmlns:xlink="http://www.w3.org/1999/xlink">
<rect x="0" y="0" width="1620" height="2160" style="fill:#bfbebd" />
<line x1="1053" y1="1126" x2="1432" y2="424" style="stroke:#a1a19a; stroke-width:3; stroke-opacity: 0.27" />
<line x1="1435" y1="2028" x2="1013" y2="1974" style="stroke:#a1a19a; stroke-width:4; stroke-opacity: 0.20" />
<line x1="-19" y1="1208" x2="840" y2="408" style="stroke:#a1a19a; stroke-width:4; stroke-opacity: 0.25" />
<line x1="1384" y1="1178" x2="143" y2="1584" style="stroke:#a1a19a; stroke-width:4; stroke-opacity: 0.33" />
<line x1="192" y1="1596" x2="1116" y2="2050" style="stroke:#a1a19a; stroke-width:4; stroke-opacity: 0.38" />
<line x1="-49" y1="605" x2="465" y2="260" style="stroke:#a1a19a; stroke-width:3; stroke-opacity: 0.17" />
<line x1="100" y1="1044" x2="895" y2="404" style="stroke:#a1a19a; stroke-width:3; stroke-opacity: 0.19" />
<line x1="1228" y1="2173" x2="1" y2="-39" style="stroke:#a1a19a; stroke-width:4; stroke-opacity: 0.11" />
<line x1="1" y1="711" x2="321" y2="957" style="stroke:#a1a19a; stroke-width:4; stroke-opacity: 0.24" />
<line x1="1489" y1="2074" x2="1375" y2="1940" style="stroke:#a1a19a; stroke-width:3; stroke-opacity: 0.16" />
<line x1="100" y1="1742" x2="483" y2="1534" style="stroke:#a1a19a; stroke-width:4; stroke-opacity: 0.13" />
<line x1="620" y1="1709" x2="1590" y2="658" style="stroke:#a1a19a; stroke-width:3; stroke-opacity: 0.24" />
<line x1="1354" y1="2113" x2="1534" y2="1983" style="stroke:#a1a19a; stroke-width:4; stroke-opacity: 0.26" />
<line x1="1337" y1="1345" x2="1135" y2="841" style="stroke:#a1a19a; stroke-width:3; stroke-opacity: 0.17" />
<line x1="240" y1="389" x2="35" y2="885" style="stroke:#a1a19a; stroke-width:4; stroke-opacity: 0.14" />
<line x1="1037" y1="864" x2="144" y2="881" style="stroke:#a1a19a; stroke-width:4; stroke-opacity: 0.25" />
<line x1="568" y1="1149" x2="-42" y2="2050" style="stroke:#a1a19a; stroke-width:3; stroke-opacity: 0.14" />
<line x1="435" y1="1884" x2="331" y2="891" style="stroke:#a1a19a; stroke-width:3; stroke-opacity: 0.15" />
<line x1="40" y1="1242" x2="232" y2="485" style="stroke:#a1a19a; stroke-width:4; stroke-opacity: 0.30" />
<line x1="823" y1="597" x2="979" y2="1693" style="stroke:#a1a19a; stroke-width:4; stroke-opacity: 0.25" />
<line x1="329" y1="2066" x2="65" y2="378" style="stroke:#a1a19a; stroke-width:3; stroke-opacity: 0.11" />
<line x1="948" y1="1951" x2="1464" y2="490" style="stroke:#a1a19a; stroke-width:3; stroke-opacity: 0.30" />
<line x1="1053" y1="140" x2="-10" y2="1007" style="stroke:#a1a19a; stroke-width:3; stroke-opacity: 0.15" />
<line x1="1589" y1="326" x2="819" y2="1779" style="stroke:#a1a19a; stroke-width:3; stroke-opacity: 0.26" />
<line x1="1604" y1="594" x2="928" y2="1593" style="stroke:#a1a19a; stroke-width:3; stroke-opacity: 0.38" />
<line x1="1198" y1="1280" x2="278" y2="125" style="stroke:#a1a19a; stroke-width:3; stroke-opacity: 0.36" />
<line x1="1545" y1="1027" x2="1351" y2="1229" style="stroke:#a1a19a; stroke-width:3; stroke-opacity: 0.22" />
<line x1="512" y1="45" x2="135" y2="1680" style="stroke:#a1a19a; stroke-width:3; stroke-opacity: 0.39" />
<line x1="-25" y1="1033" x2="111" y2="1073" style="stroke:#a1a19a; stroke-width:4; stroke-opacity: 0.33" />
<line x1="125" y1="1339" x2="806" y2="2127" style="stroke:#a1a19a; stroke-width:4; stroke-opacity: 0.19" />
<line x1="26" y1="999" x2="247" y2="1885" style="stroke:#a1a19a; stroke-width:4; stroke-opacity: 0.25" />
<line x1="1189" y1="1085" x2="98" y2="474" style="stroke:#a1a19a; stroke-width:3; stroke-opacity: 0.39" />
<line x1="926" y1="1934" x2="570" y2="1153" style="stroke:#a1a19a; stroke-width:4; stroke-opacity: 0.26" />
<line x1="-20" y1="862" x2="78" y2="1419" style="stroke:#a1a19a; stroke-width:3; stroke-opacity: 0.24" />
<line x1="1567" y1="628" x2="226" y2="607" style="stroke:#a1a19a; stroke-width:4; stroke-opacity: 0.17" />
<line x1="1353" y1="718" x2="1559" y2="701" style="stroke:#a1a19a; stroke-width:4; stroke-opacity: 0.12" />
<line x1="1232" y1="691" x2="1231" y2="1414" style="stroke:#a1a19a; stroke-width:3; stroke-opacity: 0.34" />
<line x1="1025" y1="1005" x2="851" y2="1814" style="stroke:#a1a19a; stroke-width:3; stroke-opacity: 0.18" />
<line x1="985" y1="1497" x2="331" y2="1235" style="stroke:#a1a19a; stroke-width:3; stroke-opacity: 0.27" />
<line x1="1613" y1="398" x2="1092" y2="969" style="stroke:#a1a19a; stroke-width:4; stroke-opacity: 0.26" />
<line x1="1576" y1="2167" x2="-27" y2="413" style="stroke:#a1a19a; stroke-width:3; stroke-opacity: 0.36" />
<line x1="685" y1="1393" x2="833" y2="1781" style="stroke:#a1a19a; stroke-width:4; stroke-opacity: 0.26" />
<line x1="693" y1="715" x2="-27" y2="1806" style="stroke:#a1a19a; stroke-width:3; stroke-opacity: 0.36" />
<line x1="1400" y1="640" x2="224" y2="1312" style="stroke:#a1a19a; stroke-width:3; stroke-opacity: 0.36" />
<line x1="1263" y1="196" x2="233" y2="632" style="stroke:#a1a19a; stroke-width:3; stroke-opacity: 0.35" />
<line x1="1288" y1="1331" x2="1598" y2="1728" style="stroke:#a1a19a; stroke-width:3; stroke-opacity: 0.17" />
<line x1="1664" y1="1035" x2="674" y2="582" style="stroke:#a1a19a; stroke-width:3; stroke-opacity: 0.20" />
<line x1="937" y1="757" x2="393" y2="1429" style="stroke:#a1a19a; stroke-width:3; stroke-opacity: 0.33" />
<line x1="1626" y1="192" x2="633" y2="406" style="stroke:#a1a19a; stroke-width:3; stroke-opacity: 0.38" />
<line x1="1041" y1="1352" x2="1614" y2="1075" style="stroke:#a1a19a; stroke-width:3; stroke-opacity: 0.15" />
<line x1="1329" y1="1402" x2="263" y2="1659" style="stroke:#a1a19a; stroke-width:3; stroke-opacity: 0.20" />
<line x1="6" y1="1384" x2="57" y2="1184" style="stroke:#a1a19a; stroke-width:3; stroke-opacity: 0.35" />
<line x1="410" y1="1983" x2="199" y2="1774" style="stroke:#a1a19a; stroke-width:4; stroke-opacity: 0.22" />
<line x1="1519" y1="55" x2="1356" y2="1321" style="stroke:#a1a19a; stroke-width:3; stroke-opacity: 0.19" />
<line x1="1504" y1="1812" x2="1087" y2="2128" style="stroke:#a1a19a; stroke-width:4; stroke-opacity: 0.39" />
<line x1="88" y1="1992" x2="119" y2="200" style="stroke:#a1a19a; stroke-width:3; stroke-opacity: 0.31" />
<line x1="1609" y1="1497" x2="971" y2="261" style="stroke:#a1a19a; stroke-width:3; stroke-opacity: 0.34" />
<line x1="42" y1="1181" x2="384" y2="31" style="stroke:#a1a19a; stroke-width:3; stroke-opacity: 0.11" />
<line x1="1379" y1="1805" x2="748" y2="2159" style="stroke:#a1a19a; stroke-width:3; stroke-opacity: 0.12" />
<line x1="510" y1="51" x2="742" y2="1280" style="stroke:#a1a19a; stroke-width:3; stroke-opacity: 0.34" />
<line x1="1502" y1="1402" x2="970" y2="836" style="stroke:#a1a19a; stroke-width:4; stroke-opacity: 0.19" />
<line x1="94" y1="1370" x2="458" y2="1868" style="stroke:#a1a19a; stroke-width:3; stroke-opacity: 0.16" />
<line x1="1509" y1="2035" x2="1226" y2="181" style="stroke:#a1a19a; stroke-width:4; stroke-opacity: 0.30" />
<line x1="-26" y1="358" x2="809" y2="1532" style="stroke:#a1a19a; stroke-width:4; stroke-opacity: 0.27" />
<line x1="1218" y1="2136" x2="27" y2="280" style="stroke:#a1a19a; stroke-width:3; stroke-opacity: 0.28" />
<line x1="786" y1="1216" x2="709" y2="1626" style="stroke:#a1a19a; stroke-width:3; stroke-opacity: 0.26" />
<line x1="766" y1="1816" x2="773" y2="1722" style="stroke:#a1a19a; stroke-width:4; stroke-opacity: 0.10" />
<line x1="231" y1="598" x2="1304" y2="564" style="stroke:#a1a19a; stroke-width:4; stroke-opacity: 0.19" />
<line x1="820" y1="360" x2="415" y2="1157" style="stroke:#a1a19a; stroke-width:3; stroke-opacity: 0.14" />
<line x1="1246" y1="1433" x2="1603" y2="-22" style="stroke:#a1a19a; stroke-width:3; stroke-opacity: 0.15" />
<line x1="1575" y1="1439" x2="1187" y2="272" style="stroke:#a1a19a; stroke-width:4; stroke-opacity: 0.30" />
<line x1="1053" y1="404" x2="844" y2="1597" style="stroke:#a1a19a; stroke-width:4; stroke-opacity: 0.27" />
<line x1="911" y1="1962" x2="1131" y2="766" style="stroke:#a1a19a; stroke-width:3; stroke-opacity: 0.36" />
<line x1="1204" y1="1703" x2="342" y2="359" style="stroke:#a1a19a; stroke-width:4; stroke-opacity: 0.28" />
<line x1="169" y1="2064" x2="1267" y2="146" style="stroke:#a1a19a; stroke-width:3; stroke-opacity: 0.28" />
<line x1="874" y1="36" x2="1133" y2="1267" style="stroke:#a1a19a; stroke-width:3; stroke-opacity: 0.14" />
<line x1="190" y1="1900" x2="172" y2="1234" style="stroke:#a1a19a; stroke-width:3; stroke-opacity: 0.24" />
<line x1="631" y1="2075" x2="317" y2="259" style="stroke:#a1a19a; stroke-width:3; stroke-opacity: 0.16" />
<line x1="10" y1="882" x2="1444" y2="1753" style="stroke:#a1a19a; stroke-width:3; stroke-opacity: 0.11" />
<line x1="1573" y1="701" x2="112" y2="1193" style="stroke:#a1a19a; stroke-width:4; stroke-opacity: 0.28" />
<line x1="943" y1="1772" x2="1204" y2="3" style="stroke:#a1a19a; stroke-width:4; stroke-opacity: 0.15" />
<line x1="1306" y1="91" x2="608" y2="2100" style="stroke:#a1a19a; stroke-width:3; stroke-opacity: 0.26" />
<line x1="1141" y1="749" x2="140" y2="1291" style="stroke:#a1a19a; stroke-width:3; stroke-opacity: 0.15" />
<line x1="587" y1="1949" x2="421" y2="1577" style="stroke:#a1a19a; stroke-width:4; stroke-opacity: 0.26" />
<line x1="1466" y1="778" x2="-22" y2="1055" style="stroke:#a1a19a; stroke-width:3; stroke-opacity: 0.39" />
<line x1="642" y1="1567" x2="1638" y2="1970" style="stroke:#a1a19a; stroke-width:4; stroke-opacity: 0.16" />
<line x1="979" y1="152" x2="1174" y2="1128" style="stroke:#a1a19a; stroke-width:3; stroke-opacity: 0.25" />
<line x1="1308" y1="97" x2="498" y2="21" style="stroke:#a1a19a; stroke-width:3; stroke-opacity: 0.15" />
<line x1="1614" y1="1142" x2="830" y2="1706" style="stroke:#a1a19a; stroke-width:4; stroke-opacity: 0.28" />
<line x1="1193" y1="39" x2="947" y2="268" style="stroke:#a1a19a; stroke-width:3; stroke-opacity: 0.12" />
<line x1="849" y1="381" x2="1594" y2="135" style="stroke:#a1a19a; stroke-width:4; stroke-opacity: 0.13" />
<line x1="1235" y1="806" x2="1508" y2="1815" style="stroke:#a1a19a; stroke-width:3; stroke-opacity: 0.25" />
<line x1="535" y1="197" x2="-44" y2="1275" style="stroke:#a1a19a; stroke-width:3; stroke-opacity: 0.18" />
<line x1="854" y1="1618" x2="936" y2="916" style="stroke:#a1a19a; stroke-width:3; stroke-opacity: 0.27" />
<line x1="1178" y1="1505" x2="506" y2="1817" style="stroke:#a1a19a; stroke-width:3; stroke-opacity: 0.29" />
<line x1="1462" y1="1312" x2="1624" y2="2015" style="stroke:#a1a19a; stroke-width:4; stroke-opacity: 0.27" />
<line x1="1267" y1="2004" x2="892" y2="596" style="stroke:#a1a19a; stroke-width:4; stroke-opacity: 0.14" />
<line x1="1002" y1="1202" x2="308" y2="1120" style="stroke:#a1a19a; stroke-width:4; stroke-opacity: 0.40" />
<line x1="1137" y1="346" x2="1392" y2="1635" style="stroke:#a1a19a; stroke-width:3; stroke-opacity: 0.38" />
<line x1="1600" y1="1646" x2="91" y2="2195" style="stroke:#a1a19a; stroke-width:3; stroke-opacity: 0.25" />
<line x1="1512" y1="2092" x2="1529" y2="2100" style="stroke:#a1a19a; stroke-width:3; stroke-opacity: 0.15" />
<line x1="1227" y1="1204" x2="337" y2="332" style="stroke:#a1a19a; stroke-width:3; stroke-opacity: 0.32" />
<line x1="557" y1="1419" x2="832" y2="2046" style="stroke:#a1a19a; stroke-width:4; stroke-opacity: 0.39" />
<line x1="186" y1="1637" x2="1520" y2="-19" style="stroke:#a1a19a; stroke-width:3; stroke-opacity: 0.20" />
<line x1="904" y1="349" x2="262" y2="1216" style="stroke:#a1a19a; stroke-width:4; stroke-opacity: 0.10" />
<line x1="654" y1="1643" x2="207" y2="1341" style="stroke:#a1a19a; stroke-width:3; stroke-opacity: 0.23" />
<line x1="239" y1="439" x2="447" y2="1161" style="stroke:#a1a19a; stroke-width:3; stroke-opacity: 0.19" />
<line x1="841" y1="-37" x2="367" y2="687" style="stroke:#a1a19a; stroke-width:3; stroke-opacity: 0.12" />
<line x1="293" y1="1497" x2="984" y2="1666" style="stroke:#a1a19a; stroke-width:4; stroke-opacity: 0.22" />
<line x1="964" y1="1980" x2="855" y2="841" style="stroke:#a1a19a; stroke-width:4; stroke-opacity: 0.12" />
<line x1="76" y1="1631" x2="1079" y2="144" style="stroke:#a1a19a; stroke-width:4; stroke-opacity: 0.13" />
<line x1="699" y1="647" x2="1570" y2="1832" style="stroke:#a1a19a; stroke-width:3; stroke-opacity: 0.23" />
<line x1="1096" y1="117" x2="688" y2="1631" style="stroke:#a1a19a; stroke-width:3; stroke-opacity: 0.19" />
<line x1="1127" y1="42" x2="1224" y2="1404" style="stroke:#a1a19a; stroke-width:3; stroke-opacity: 0.31" />
<line x1="832" y1="740" x2="1359" y2="1851" style="stroke:#a1a19a; stroke-width:4; stroke-opacity: 0.14" />
<line x1="1228" y1="1689" x2="1163" y2="1940" style="stroke:#a1a19a; stroke-width:4; stroke-opacity: 0.18" />
<line x1="1523" y1="270" x2="979" y2="1880" style="stroke:#a1a19a; stroke-width:3; stroke-opacity: 0.32" />
<line x1="1357" y1="665" x2="1646" y2="1232" style="stroke:#a1a19a; stroke-width:4; stroke-opacity: 0.40" />
<line x1="230" y1="416" x2="759" y2="1978" style="stroke:#a1a19a; stroke-width:4; stroke-opacity: 0.20" />
<line x1="1014" y1="786" x2="747" y2="1724" style="stroke:#a1a19a; stroke-width:4; stroke-opacity: 0.35" />
<line x1="894" y1="2039" x2="724" y2="1603" style="stroke:#a1a19a; stroke-width:4; stroke-opacity: 0.28" />
<line x1="1061" y1="889" x2="100" y2="1226" style="stroke:#a1a19a; stroke-width:3; stroke-opacity: 0.14" />
<line x1="1022" y1="1372" x2="1171" y2="1105" style="stroke:#a1a19a; stroke-width:4; stroke-opacity: 0.20" />
<line x1="1326" y1="2199" x2="1467" y2="711" style="stroke:#a1a19a; stroke-width:4; stroke-opacity: 0.24" />
<line x1="987" y1="471" x2="1143" y2="-37" style="stroke:#a1a19a; stroke-width:3; stroke-opacity: 0.29" />
<line x1="1577" y1="1778" x2="553" y2="734" style="stroke:#a1a19a; stroke-width:3; stroke-opacity: 0.12" />
<line x1="413" y1="1778" x2="1288" y2="7" style="stroke:#a1a19a; stroke-width:4; stroke-opacity: 0.39" />
<line x1="1599" y1="937" x2="1529" y2="322" style="stroke:#a1a19a; stroke-width:3; stroke-opacity: 0.38" />
<line x1="712" y1="1986" x2="362" y2="1484" style="stroke:#a1a19a; stroke-width:4; stroke-opacity: 0.14" />
<line x1="1201" y1="2174" x2="1083" y2="700" style="stroke:#a1a19a; stroke-width:3; stroke-opacity: 0.36" />
<line x1="982" y1="1877" x2="1400" y2="371" style="stroke:#a1a19a; stroke-width:4; stroke-opacity: 0.19" />
<line x1="591" y1="1535" x2="767" y2="2069" style="stroke:#a1a19a; stroke-width:4; stroke-opacity: 0.11" />
<line x1="1627" y1="368" x2="1579" y2="897" style="stroke:#a1a19a; stroke-width:3; stroke-opacity: 0.23" />
<line x1="1053" y1="2170" x2="387" y2="267" style="stroke:#a1a19a; stroke-width:4; stroke-opacity: 0.30" />
<line x1="1378" y1="1257" x2="1272" y2="281" style="stroke:#a1a19a; stroke-width:3; stroke-opacity: 0.39" />
<line x1="1429" y1="687" x2="787" y2="506" style="stroke:#a1a19a; stroke-width:4; stroke-opacity: 0.39" />
<line x1="574" y1="735" x2="362" y2="684" style="stroke:#a1a19a; stroke-width:4; stroke-opacity: 0.25" />
<line x1="205" y1="1927" x2="697" y2="1088" style="stroke:#a1a19a; stroke-width:4; stroke-opacity: 0.16" />
<line x1="423" y1="946" x2="1577" y2="1795" style="stroke:#a1a19a; stroke-width:4; stroke-opacity: 0.12" />
<line x1="1083" y1="47" x2="700" y2="2179" style="stroke:#a1a19a; stroke-width:4; stroke-opacity: 0.31" />
<line x1="1042" y1="1917" x2="1277" y2="104" style="stroke:#a1a19a; stroke-width:4; stroke-opacity: 0.28" />
<line x1="1227" y1="126" x2="35" y2="1543" style="stroke:#a1a19a; stroke-width:4; stroke-opacity: 0.33" />
<line x1="1307" y1="1677" x2="989" y2="1137" style="stroke:#a1a19a; stroke-width:3; stroke-opacity: 0.20" />
<line x1="926" y1="16" x2="25" y2="1660" style="stroke:#a1a19a; stroke-width:3; stroke-opacity: 0.31" />
<line x1="602" y1="1125" x2="15" y2="1387" style="stroke:#a1a19a; stroke-width:3; stroke-opacity: 0.10" />
<line x1="534" y1="1635" x2="1621" y2="2028" style="stroke:#a1a19a; stroke-width:4; stroke-opacity: 0.17" />
<line x1="990" y1="1566" x2="1333" y2="476" style="stroke:#a1a19a; stroke-width:4; stroke-opacity: 0.15" />
<line x1="997" y1="1427" x2="1256" y2="953" style="stroke:#a1a19a; stroke-width:3; stroke-opacity: 0.23" />
<line x1="71" y1="1773" x2="151" y2="730" style="stroke:#a1a19a; stroke-width:4; stroke-opacity: 0.27" />
<line x1="1019" y1="1372" x2="368" y2="627" style="stroke:#a1a19a; stroke-width:4; stroke-opacity: 0.35" />
<g id='stain0' transform='scale(0.12) translate(-800, -800)' style="fill:#85857f" >

  <g>
    <path d="M164 481s1-111 90-162c51-29 53-15 53-15s31 12 18 51c-12 39-161 126-161 126ZM235 150l-18 24s4 38 25 40 27-6 27-6l-34-58ZM122 276l21 23M120 268c3 11 7 25 16 32 2 3 5 6 9 5 2 0 4-2 4-4 1-2 0-4-1-6-1-7-2-11-8-16M383 427c-4 1-6 5-7 9-5 9-7 28 5 34 3 2 7 4 11 3 3-1 4-5 4-8 1-3 0-6-1-9 0-3-3-5-3-8s4-4 4-7c1-3 0-6-1-8-4-3-8-6-12-6ZM397 550c-4 2-6 5-7 8-1 4 1 7 3 10 5 9 18 12 27 13 3 1 7 3 10 1s5-6 5-10c1-3 0-6-3-8-2-2-7-2-9-4-3-1-3-5-6-7l-9-1c-4 0-8-3-11-2ZM1000 271c-5-4-7 9-10 14-4 5-9 7-8 15 0 8 6 10 11 15 2 2 3 8 6 7 4-1 3-7 4-11s-1-14-1-18c-1-7 4-18-2-22ZM262 116c-10 19 2 34 18 45l12 7 16 16 8 5 9 1c2 1 4 5 7 5 3 1 7 0 9-2 3-2 4-7 6-10 2-6 2-13 3-20l3-8c2-3 2-7 5-10 2-3 7-2 9-5 8-9-3-21-11-25l-9-1c-14 0-18 9-22 21-2 2-1 6-3 8s-6 3-9 2c-3-2-3-7-4-10l-3-9c-5-8-14-10-23-13-4-1-8-4-12-3-4 0-7 3-9 6ZM334 924c-3 2-7-2-9-4s-1-6-1-9l-4-9c-6-10-19-13-26-22-3-5-4-11-6-16l-9-12c-4-7-7-16-12-22-6-6-13-9-15-18-3-10-1-25-4-34-3-8-11-15-17-20l-11-13c-5-5-13-9-17-16-3-5-3-23-3-29l2-7-5-8c-6-7-13-5-21-8-9-3-17-12-17-22 1-19 9-32 21-46l11-10c7-4 14-3 21-4 8-1 17-3 25-6l35-13c7-3 13-6 21-7h17l16 1c13 1 26-3 37 5 10 7 15 16 22 24s22 22 22 32l-3 16-2 7c-2 4-7 6-11 9-8 4-14 9-15 18 0 8 1 17 4 25 1 2 3 4 3 7 2 12-11 16-14 27-3 12 3 23 3 34 0 15-13 24-19 36-3 5-9 18-10 23v23c1 10 6 20 5 30 0 7-3 12-5 18l-2 10c-2 4-3 9-7 10ZM840 391c-2-19-2-28 13-40 5-4 8-6 14-8 7-3 13-2 11-13-3-13-24-9-33-8-7 1-14 7-20 7-11 0-13-15-15-22-4-16-9-32-11-48l-2-13-4-14c-1-8 0-18 1-27 1-7 3-10 5-17l6-22 3-7c1-6-4-16-8-19-3-3-8-2-13-3l-12-7c-4-6-2-9-5-15-4-6-7-7-13-11-11-7-20-15-33-17-8-2-17 0-25 1-10 1-19-2-28-1-5 1-10 3-14 2-12-1-11-12-19-18l-7-2-7 5-6 5c-7 5-12 10-20 13l-14 4c-11 3-23 7-35 9l-13 2c-14 4-27 11-42 14-7 2-15 3-23 3l-12 1c-5 2-11 13-16 15l-7-2c-6-1-8-3-14-3-4-1-9 1-13 1h-7l-7 4-18 6c-8 4-13 15-19 22l-3 6c-1 2 0 4 1 7 3 7 12 9 13 16 1 6-3 13-4 18-3 8-4 18-4 26 1 20 18 27 27 43 3 6 6 17 13 21 6 3 17-1 23-3l44-19 24-13c21-11 45-20 69-26 21-5 40-8 60 0 9 4 16 11 24 15 13 8 28 14 37 27 9 11 9 26 16 39 6 11 16 16 26 24 13 10 25 23 42 27 19 4 38-6 55-11M389 14c-2 0-1-5-4-6-3 0-5 3-7 5l-8 7c-5 9-8 20-2 28 11 14 26 13 40 5 6-3 12-9 18-9 11-1 11 8 20 11 2 1 10 0 12-1 10-3 19-10 22-21 3-13-6-19-18-22-7-2-15-2-23-2-10-1-20-2-31 0-6 1-12 6-19 5Z" fill-rule="evenodd"/>
    <path d="m384 295-7 21c-2 19 7 38 12 56 3 9 5 18 12 26 11 15 31 19 38 36 3 8 0 12-3 19-6 12-17 25-13 40 4 13 11 25 16 37l4 19c4 12 11 22 17 34 4 8 8 18 15 25l9 8c6 7 8 16 16 22 8 5 20 5 29 8s18 7 27 8c11 1 21 0 31-3l12-1 17-5c7-1 14-1 20-3 5-2 14-6 19-10 7-5 12-13 17-20 7-9 17-18 27-24 15-9 31-15 47-19 8-3 19-2 27-6 7-3 14-12 18-19 3-5 10-17 10-23l-3-10c-2-9-3-19-6-28-2-9-5-13-4-22 0-10 6-32-2-39-3-3-8-2-12-4-7-2-15-5-19-12-4-5-5-12-7-18-4-9-15-23-24-27-5-2-8-1-14-1l-14-3-17-2c-5-1-7 0-11-3-13-9-1-29-13-36-6-4-15-2-21-1l-17 3c-8 3-17 9-26 9-8 0-13-10-18-15-8-8-19-15-29-19-18-7-37-4-55 1l-16 4c-14 2-29 3-43 7l-31 8c-4 1-9 4-13 3-6-2-7-12-5-18l3-3Z" fill-rule="evenodd"/>
    <path d="M519 289h-5 12-7Zm-5 0Zm-6 1Zm-7 1-2 1 2-1Zm-2 1-7 1-8 2h3l12-3Zm-15 3-8 2-15 2-16 3 19-3 12-2 8-2Zm-39 7h-1l-5 1 6-1Zm-6 1-5 1-10 3 10-3 5-1Zm87-14Zm7 1 2 1v-1h-2Zm2 1 17 5a81 81 0 0 1-14-5h-3Zm29 13 5 4-1-1-4-3Zm-180-9-2 1h2l-1 2-1 4-2 4-1 3-2 9c-1 6 0 12 1 18 2 11 6 21 10 31l7 23 7 10c8 9 18 14 27 22 4 3 7 6 9 11l2 4c1 5-2 9-4 14l-2 5c-6 11-15 23-11 37 3 13 11 25 15 38l5 18 4 10 10 20 13 23 6 8 9 7c5 7 7 15 14 20l9 5 21 4c9 3 18 8 27 8h21l11-3 12-1 17-5 12-1 10-3a92 92 0 0 0 18-10c7-6 11-13 16-20 8-9 17-17 27-23a169 169 0 0 1 47-19c8-3 18-2 26-6l9-6 10-14 5-10c2-3 4-7 4-11l-2-8-1-5-4-22c-2-7-6-14-6-22l1-13 2-15c0-5-1-9-3-13-3-5-9-4-14-6-7-2-14-5-18-11s-6-13-8-19l-4-8-6-8c-3-4-7-7-12-10l-8-2-9-1-10-2-13-1-8-2h-6l-5-3c-7-5-6-14-6-21v-4c-1-5-2-9-7-11l-4-1c-6-1-12 1-17 2-7 1-14 1-20 4l-15 6h-9c-6-1-10-7-14-11l-1-2c5 6 9 13 17 14l8-1 13-6 5-1c6-2 11-3 17-3 6-2 14-3 20-1 5 3 6 8 7 13 0 7-1 16 4 21l3 3 4 2 6 1 10 1 11 2 10 2h9l8 2c5 3 9 8 13 12l8 14c3 6 4 14 9 19 4 6 11 10 18 12 5 1 11 0 14 5 2 4 2 10 2 15l-1 13c-1 4-2 8-1 12 0 8 4 16 5 24l4 21 2 6 2 7a144 144 0 0 1-11 24l-10 12-7 5c-9 4-19 3-27 5a212 212 0 0 0-48 20c-9 6-18 14-25 23-5 6-10 14-16 19l-10 7a91 91 0 0 1-15 6l-16 2-16 4-12 2-11 2-21 1c-9-1-18-6-27-8l-21-5-9-4c-6-5-8-14-14-20l-8-8c-3-2-5-4-6-7-6-8-9-17-14-25l-9-18-5-10-4-19c-4-12-11-23-15-36l-1-7c-1-6 1-11 4-17l9-16 2-4c2-5 4-9 2-14-2-7-8-13-14-18l-19-14c-3-2-6-5-8-9-5-8-8-18-11-28l-9-29-2-18c1-4 1-8 3-11v-2l5-12h-1Zm-3 15 1 2-1-2Zm1 2Zm-2-6v-3 3Zm0-3v-2 2Zm0-2v-1 1Zm0-1 1-1-1 1Zm1-1Zm1-2v-1 1Zm-2 9v1-1Zm42 2-17 4 15-4h2Zm-17 4-4 1 4-1Zm-4 1-3 1a43 43 0 0 0 3-1Zm-18 0Zm1 1Zm1 1Zm0 0Zm7 1Z"/>
    <path d="M185 107c-7 4-13 10-18 15-2 1-6 5-8 5-3 0-5-4-7-6-3-3-8-6-8-11-1-5 2-10 2-15 0-3-3-5-4-8l-1-5c-2-4-6-12-12-10-4 2-8 8-12 12-9 12-17 26-12 42 3 8 10 14 12 22v4c-1 4-3 6-6 9l-12 9c-6 3-13 6-15 14-2 7 1 16 5 22l4 3c2 4 3 8 7 11 3 1 7 4 11 3s9-7 14-6c4 2 3 7 7 8 6 2 14-4 16-9 2-3 2-7 4-9 4-4 10-2 14-4s6-6 7-10c2-7-2-14-5-21-2-6-3-16-1-22 4-10 16-15 24-22 3-3 8-8 7-14-2-7-10-12-17-8l-9 8" fill-rule="evenodd"/>
  </g>
</g>
<g id='stain1' transform='scale(0.12) translate(-800, -800)' style="fill:#85857f" >

  <g fill-rule="evenodd">
    <path d="M273 793c-3-30 3-63 7-93l3-25v-8c-5-11-25-4-35-10-5-3-8-9-13-14-7-8-12-17-18-26l-8-10c-7-10-9-20-14-31-3-7-6-8-5-16 1-10 14-26 9-37l-6-7c-4-2-13 1-17-1-4-3-4-10-5-15l-2-8c-1-15 18-19 16-34-1-8-9-16-15-21l-7-4c-5-6-4-11-5-19 0-2-2-6-1-8 1-3 11-9 13-10l13-13c5-5 12-9 15-14 9-13-3-30 0-44 1-6 3-12 7-17 5-7 12-11 15-20 2-6 2-13 5-19l4-7c3-1 5 1 8 1 6 2 12 5 19 5 2 0 6 1 8-1 3-2 4-6 5-9 1-8 0-12-3-19-1-3-5-6-3-9 1-3 7-2 10-3 9-1 18-2 26-6 13-5 21-16 31-24l8-5c10-3 21 1 31 2 20 1 42-3 62 2l12 5c3 1 5 4 9 5 2 1 5 0 7-2 6-4 6-14 12-19 7-7 21-7 31-6s16 8 23 14l19 11c12 7 25 10 37 15 8 4 17 11 24 17 6 5 11 12 16 18 10 10 21 18 32 27l9 9c11 6 33 6 40 16 3 5 4 16 5 21l5 23c3 13 17 18 17 32 1 7-4 21-1 28l7 8c5 3 12 3 16 7 3 3 4 6 6 10 5 6 8 12 11 19 5 11 5 22 5 34l1 17 9 25 10 33c2 4 6 13 4 18-2 3-4 6-8 7-4 2-8 1-12 0-15-2-23-12-30-23-13-21-14-44-17-67-2-18-1-34-14-48-11-11-26-16-37-27l-6-7c-2-2-4-6-7-6s-5 3-6 6 1 7 2 10l2 24c2 13 5 28 11 41 3 7 8 12 12 18l12 21a127 127 0 0 0 53 41c12 4 21 5 27 18 3 10-2 20 3 30 4 8 12 16 17 23 9 14 15 29 24 42l11 13c2 2 3 5 6 6 4 0 7-2 10-5l6-8c4-6 9-10 16-12 12-3 24 1 37-6 14-8 25-22 40-30 2-1 5-3 8-3 4 1 6 4 10 7l8 6c9 8 19 18 19 32-1 14-12 22-21 29-7 6-15 10-24 11-14 1-26-6-39-12-10-4-22-5-33-5l-11 1c-10 4-19 19-20 30-1 9 6 16 1 25-1 3-3 6-6 7-6 1-12-4-17-7l-16-14c-3-3-6-8-11-11-15-8-31 2-44 9-3 1-7 2-9 5-3 5-1 15 0 20l8 18c6 12 11 23 25 29 9 4 17 3 23 11 3 3 6 5 7 9 0 4-2 7-3 11-2 5-7 10-11 14a97 97 0 0 1-51 25h-12c-3-1-6-2-8-5-2-4-1-9-2-13-1-17 6-34 10-50 2-7 6-22-1-29l-11-5c-13-4-28 5-39 10-17 8-32 21-50 27-10 3-22 5-32 4l-24-5c-23-1-52-1-72 13-19 13-20 34-23 54-1 6-3 14-9 15-5 1-10 0-15-1l-21-2c-20 1-40 6-60 2-11-2-22-6-33-11-8-3-18-6-25-12-14-14-11-27-16-46-5-23-16-46-14-70"/>
    <path d="m938 571-12 1-10 5c-6 4-14 9-18 14-2 3-5 5-5 8 0 2 3 5 5 6l7 1c12 1 32 1 42-5 3-2 7-3 8-7 1-2-1-5-2-8-3-6-9-16-15-15ZM226 976c11-20 15-39 13-62 0-6 0-12-5-17l-8-4c-4-2-7-5-11-6-4-2-8-3-13-3-2-1-5 0-7-2-3-2-3-6-5-9l-4-7-2-12c-1-3 0-6-2-9s-5-5-9-6h-10c-15 2-28 13-39 22-17 13-27 32-35 52-7 17-11 34-12 53 0 7 0 14 2 21s6 13 10 19M107 321l3-20 7-12c8-14 16-31 29-41 5-3 9-9 15-9s10 4 15 7c5 2 9 6 14 7 6 0 13-2 19-5 11-5 18-16 26-25 14-16 29-35 50-43l12-2c7-1 13 2 19 0 7-2 13-7 19-12 15-10 29-27 32-45l1-14-4-10c-3-4-6-9-11-10-8-2-16 2-23 3-8 2-15 6-23 7-6 0-13 2-18-1s-7-10-11-15c-7-9-13-20-23-27a98 98 0 0 0-66-14c-12 2-24 8-35 12-21 9-41 19-56 36-4 4-13 14-15 19-6 17-3 31-1 48 0 10-2 21 0 32l5 31c4 14 9 25 11 39 2 26-7 48-18 71"/>
  </g>
</g>
<g id='stain2' transform='scale(0.12) translate(-800, -800)' style="fill:#85857f" >

  <g fill-rule="evenodd">
    <path d="M90 677h-3v2c-2 0-4-3-5-3-6-3-14-11-16-17-2-3-1-7-1-11 0-7 0-14 2-21 3-8 9-14 13-22 4-9 7-17 9-27l1-15c-1-3-3-6-3-10l1-27 2-19v-10c2-9 10-18 12-28 2-6 0-18 0-24v-15l-3-11c-1-9 2-18 1-27l-2-11 2-12c2-10 10-16 14-24 2-4 3-8 2-11 0-4-2-5-1-9l5-8c4-6 8-15 9-22 1-6-2-19 5-22h16c10 1 25-2 34 5 6 4 7 11 11 16 6 8 13 13 11 24-1 5-4 11-7 15-4 6-13 11-9 20 5 13 24 13 34 22 4 4 1 11 1 16s4 9 4 14c1 7-2 15 1 21l13 20c2 3 5 8 5 12s-6 7-9 9c-8 5-15 13-23 19-2 1-7 2-7 4-1 4 9 12 11 14 11 13 25 22 38 32 5 4 17 2 16 9 0 3-4 7-5 9l-14 16-8 12-18 19-8 5c-13 10-28 16-42 24-14 9-27 18-43 24-4 2-9 1-13 2-7 2-14 7-19 11-6 4-6 8-14 10ZM254 283c-7 0-11 14-14 19-2 2-5 5-3 8 1 2 14 6 17 7 6 4 10 10 15 15l11 11c5 6 4 14 6 20 1 4 4 7 6 10 4 6 5 14 9 19 3 3 8 3 12 5 16 6 32 7 45-7l8-14c5-10 7-15 7-26 1-5 1-11-3-15s-18-9-19-14c-1-7 6-16 10-22 1-3 5-4 7-8v-21c0-3-3-6-4-8l-1-15-2-6c-5-14-31-11-44-13-3-1-7-1-10-3-4-2-5-7-11-7-10 2-18 10-26 15l-7 4-4 3c-2 2-7 3-9 6l-2 8-5 17v11c0 6-2 12-4 17"/>
    <path d="M321 207c4 0 8 3 11 3l10 3c5 1 9 6 12 9 13 10 22 21 28 36 2 4 0 9 2 13 3 7 18 7 22 1 3-4 3-8 2-13-3-11-14-16-24-21-3-2-7-5-8-8-6-13 5-38-17-39h-5l-8 2-16 8c-8 4-14 8-19 15M271 726l2 1-2-1-4-4c-5-1-12 2-17 4l-25 12c-12 5-24 8-35 16-5 3-18 13-19 19v4l1 14c0 4-1 9 1 13 3 5 7 6 8 11 4 15-1 20 14 30 14 9 29 11 32-10 3-18-4-45 12-59 5-5 9-1 14 1l15 5 6 4 6 2c5 4 4 6 12 7l7 1c4-1 16-8 17-12l-2-8-1-6c-4-8-16-8-23-10l-13-3-12-2c-2-2 2-5 3-6l6-7c2-2 6-4 6-8s-8-7-11-9l2 1ZM444 722l-5-6v-1 2c-3 1-8-9-9-10-4-6-17-18-17-25l1-8c1-2 3-2 4-5v-7c2-12-1-24-2-36-1-3 0-7-2-11-5-8-9-8-16-1-1 1-4 7-6 6-4-3-4-11-4-15 0-14-3-27-2-40 1-5 7-10 5-15-1-3-4-5-6-7-5-8-13-16-16-25v-4c-2-7-7-11-6-18 1-5 5-9 7-14l7-16 6-5 7-18c2-3 3-7 3-11 2-7-4-15 4-21 4-3 9-7 14-9l5-2 8-4h10l36-2 36-6c5-1 12-1 17-3l10-6 7-1c5-2 7-7 10-10 6-6 8-11 13-17l5-6 3-8c1-6 6-12 10-16 5-5 12-6 18-10 8-6 9-23 21-25 4-1 10-2 15-1 2 0 4 3 7 3h13c9-1 16-5 24-6h25c4-1 9-4 12-3 6 2 11 7 17 9 6 1 13 1 18 3l12 8c6 5 11 13 15 19l12 16 10 16 2 2 10 14c4 6 6 8 7 16l-1 13c0 3-4 4-5 7l-1 7v21c-1 7-5 13-6 20-1 6 0 13 1 18 1 3 4 5 4 8l1 19c1 7 4 14 3 21-1 6-7 8-9 14-5 17-8 36-11 54 0 2-2 3-3 5l-4 9c-3 9 0 21 2 30l5 8c2 3 2 17 0 20-3 5-9 6-14 9l-7 5-11 4-20 10c-8 5-14 13-23 17-4 2-8 1-12 4l-20 13-14 7-11 7-10 4-10 5-5 6c-7 5-19 7-27 9-6 1-11 6-17 8-5 2-11 7-16 8-5 0-10-2-15-1-4 1-5 4-8 6l-8 4c-5 2-10 12-16 10-4-1-8-6-11-8-6-4-12-7-16-12-5-7-5-16-7-24l-4-16c-1-3-1-7-3-10-3-3-6-8-11-8h-6c-3-3-3-8-5-11"/>
  </g>
</g>
<g id='stain3' transform='scale(0.12) translate(-800, -800)' style="fill:#85857f" >

  <g fill-rule="evenodd">
    <path d="M222 822c0-9-5-7-8-12-4-4-5-9-7-14l-10-13-6-10c-2-4-1-7-5-11l-11-10c-2-4-1-5-4-8s-8-3-11-5l-10-14-4-1c-6-5-11-14-15-21-3-7 0-14-1-21-2-9-2-19-2-27v-13l-9-18c-5-8-12-5-20-7-6-1-17-18-17-24 2-8 11-20 18-24 5-3 12-2 18-4 5-2 8-6 12-8l6-3 15-9h10c10-3 21-5 32-4 6 1 13 2 20 1 4-1 7-4 12-4l15-3c4-2 3-3 8-4 3-2 10 1 11 4 3 8 2 18 5 26 2 4 6 6 7 11l4 14c2 7 9 16 7 24l-5 11c-3 8-2 16-6 24-6 13-16 24-21 38-3 12-1 23 0 35 1 8-2 18-4 26l-11 34c-2 5-5 9-5 15M272 521c-2-2-2 3-2 6s-1 7 1 10c1 3 6 3 9 3l21 4c5 2 7 6 11 9l3 1c2-1 3-9 3-11l2-7c-2-4-10-10-15-11-7-2-16-1-24-2-3 0-7 0-9-2ZM265 422l2-1-2-1-2-1c-2 2-1 6-1 9 0 7-3 20 4 25 4 3 16 6 21 5s15-13 19-8c5 4 5 12 6 17l5 17c4 10 8 20 10 30l2 12 4 10c2 6 4 13 8 18 8 15 25 26 39 34 16 10 34 2 52 1 7-1 15 0 23 1 6 0 12 2 18 1 15-2 27-12 41-18l17-8c13-5 26-8 38-15 7-4 10-10 16-15s15-8 22-11c3-1 6-1 8-3 2-1 10-12 11-15v-5c0-9-14-9-20-13l-3-2c-1-3 1-7 2-10l4-21c2-3 5-8 4-12 0-2-3-4-3-5l-9-12c-5-6-8-15-14-21-3-3-9-5-11-9-4-8-5-16-14-20-6-3-15-4-22-3l-5 3c-2 0-3 2-4 1l1-5c0-5 5-21 1-25-5-5-23-4-31-4h-10c-4-4 0-14-2-18l-4-4-3-2h-6c-9 1-18 4-25 9-5 4-2 6-4 9l-12 1c-3 0-4-2-7-4l-16-11-5-5-10-4c-3-2-6-6-11-4l-12 9c-5 2-11 3-15 6-11 7-21 17-34 20-3 1-4-4-6-6l-14-9-6-5-9-9c-5-3-24-3-29-1-4 1-13 8-12 13 0 6 7 14 11 18 3 2 7 4 8 7 7 12 11 25 15 38 5 12-1 16-12 22-2 0-10 9-10 9h3ZM92 464h-5l-1 2v-5l-1-6c1-9 1-21 6-29 6-11 16-22 24-31 6-6 14-11 18-18l3-8 5-10v-11c1-4 5-7 7-10 11-11 26-23 42-25 10-2 13 7 19 13 2 4 7 7 8 11 1 7-4 12-6 18-2 3-1 7-2 10l-6 12c-5 13-15 18-26 25l-31 20-16 10-13 13-15 11c-4 4-4 7-10 8ZM69 130c1 0 3-6-1-4l-1 3-8 13-20 30c-3 6-7 12-8 18l-1 20c-1 5-7 13-5 19 1 3 8 6 11 7 10 7 14 13 26 14 3 1 20 1 22-1s-2-12-2-15c-1-9 0-20 3-28 2-5 6-10 10-14s10-7 13-12c2-3 2-10 2-14v-8c-1-3-7-2-9-2-6 2-11 7-15 10l-5 5-2 3v1c-2-2-1-7-1-10l-1-11-1-10c-1-4-3-6-7-8 0 0-4-1-4-3l4-3ZM144 184c-9 4-14 13-20 21-1 2-5 6-2 9l5 2 12 10 5 4c5 5 5 18 14 19 4 1 17 2 20-1l1-7c2-8-2-17-8-23l-10-11-7-6M164 158c0-5-2 0-2 2v11c1 7 5 13 8 19 4 7 7 14 12 20 12 12 29 18 46 20h17c2-3-3-8-4-11l-2-6-5-9-2-8c-1-3-2-8 0-11 4-7 19-6 25-12 1-1 5-3 5-5 5-11 2-22 3-32 0-5 2-9 1-13l-3-4c-7-7-18-6-27-3-8 4-15 9-18 18 0 3 1 9-1 11l-13 1c-8 2-15 3-23 3h-12c-6 2-11 7-15 11l-5 8"/>
    <path d="M278 185c1 4-13 1-15 2-6 1-19 10-19 17-2 8-3 17 0 24 3 6 8 13 12 17l7 10-2 9c-1 9 1 21 9 27a193 193 0 0 0 59 11l5 1c8-1 15-10 21-15 12-10 23-20 36-29l12-8c7-4 14-5 22-7 20-5 43-6 64 0l16 7c9 3 17 4 23 12 3 4 1 10 1 14v12l-2 14c0 7 1 16 3 23 3 6 8 12 12 17 3 5 5 10 10 13l12 9 9 10c9 6 25 9 36 5l4-4c4-5 9-13 15-16 7-4 17-4 23-9l2-6 3-4c0-17-13-13-23-19-14-9-25-21-28-37-1-7 0-17 1-23l5-17 2-15c0-7-9-15-8-19 3-7 22-8 17-18 0-2-2-3-3-5-4-8-15-16-23-20-6-2-14-1-18-7-3-4-2-8-3-14 0-9-7-15-17-16l-15 1-26 2c-4 1-7 4-11 4h-13c-13-2-10-19-21-24-13-6-27 3-39 9-7 4-15 7-22 12-5 3-9 7-15 9l-45 24-11 4-8 4c-9 4-20 5-30 7l-19 1c-1 0-6-1-5 1ZM775 290c1-3 1-5-4-3-3 2-7 8-9 11-4 7-6 14 4 18 12 5 24-2 32-12 2-2 6-9 5-12s-7-6-9-7M46 286c-1 0-2-2-3-1l5 4 3 4c2 5 5 7 9 11s6 10 11 12c3 1 7 1 10-1 2-3 1-4 2-7 1-11-8-23-19-24l-18 2ZM897 290c4 0-4 1-4 4v6l-4 10-14 36c-8 19-16 39-28 55-6 9-15 14-20 23-4 8-3 8-5 16l-8 31c-2 6-11 33-4 37 10 7 34 5 44-1l11-12 2-2v-4c1-9-1-19 1-28 1-4 5-7 7-10l7-16c4-7 7-16 9-24 1-3 0-5 3-9 6-10 17-16 23-25 4-5 5-12 8-18 2-5 5-10 4-15-1-4-8-9-10-11l-11-11c-3-5-4-8-10-11"/>
  </g>
</g>
<g id='stain4' transform='scale(0.12) translate(-800, -800)' style="fill:#85857f" >

  <g fill-rule="evenodd">
    <path d="M321 538c-9 5-14 3-22 5-17 2-29 8-40 21-3 3-5 6-6 10-1 8 17 17 12 24-2 2-7 3-10 4-9 5-22 20-19 31 1 4 3 6 3 10 2 8 0 22 11 24 5 1 12 3 18 2l12-2c3 1 8-1 10 1 4 4 3 13 4 18 2 9 6 19 12 26s13 10 21 14l30 13 24 10c6 3 11 7 17 8 10 3 20 1 29 5 6 1 9 6 14 8 7 3 17 5 25 6h7l5 1c5-1 8-5 12-6l6-3 6-5c4-4 9-8 12-13 2-3 2-7 3-10l4-10c1-5-4-17-5-21-4-16 8-37 25-39l19-1 15 4h18c11 2 23-3 34-1 2 0 3 2 4 3 9 7 2 14 6 23 4 7 20 3 24-3 3-6 6-16 4-23l-4-5-1-7-8-9c-3-7-6-16-7-23l-5-21-3-13v-30c0-5 1-9-1-14-5-10-14-17-24-23l-12-4-15-9-12-4-7-5c-9-2-20-3-30-2-9 0-18 4-27 6-5 1-10 1-14 3-9 4-26 13-36 12-5-1-7-8-10-11-3-5-8-8-14-9l-19-1c-20 0-38 7-58 13-14 5-23 14-37 22ZM377 229c-12-4-27 12-35 19-9 8-19 15-26 25l-11 20c-2 4-5 9-6 15v9l-5 37c-2 11 2 13 4 23 2 13-1 35 9 45 11 10 26 12 38 19l38 21c4 2 6 5 11 6 15 4 29 2 43-1 13-3 29-4 41-10l11-6 23-7 7-1c8-5 13-17 17-25 2-4 6-8 6-12 0-10-9-21-8-30 1-10 12-16 14-26 1-6-5-10-6-16-2-9 3-17 2-26l-6-15c-8-20-21-24-38-35l-20-14a90 90 0 0 0-58-14c-9 1-14 5-23 10M577 163c-1-1-3-6-5-7-11-5-31 15-38 22-4 4-8 11-3 17 5 8 17 11 26 14 19 6 39 7 59 9 8 1 21-1 27 5 7 6 5 26 7 34 3 10 15 14 21 20 5 4 8 10 14 14 9 6 21 7 32 8l42 11c8 3 16 5 24 12 5 4 10 11 14 17 6 7 12 16 15 25l4 9c8 13 23 19 38 17 4 0 9-1 13-4l12-11c22-27 16-56 19-88 3-19 10-39 8-59-1-13-8-27-15-37l-6-7c-5-8-7-17-10-26-8-21-32-41-51-49-32-13-67-11-101-6-32 4-64 11-95 24M857 602c-9-5-28 10-27 20 1 8 8 12 15 14 3 1 5 3 9 3 16 2 26-9 27-24 1-8 0-20-11-20M859 753c-3-2-8-4-12-4-11 1-24 21-24 32 1 16 16 28 25 40 6 7 9 19 18 23 7 3 13 2 19-1 14-9 16-29 12-44l-5-12c-4-8-13-7-18-13-4-4-3-10-6-14-2-3-6-5-9-7ZM791 693c-7-4-21 5-27 8-3 2-9 3-11 6-3 3-3 8-3 11 0 10 10 17 20 18 5 1 12 0 17-1h6c2 1 0 4 0 5 0 3 6 5 8 4 8 0 17-8 17-16-1-7-6-10-9-15-3-4-2-6-6-9-2-2-14-5-14-6-1-2 3-4 2-5ZM844 705c-1-7-5 0-6 0-7 6-15 24 0 27 9 1 18-3 24-9 2-2 5-8 3-11-6-6-20 0-21-7Z"/>
    <path d="M593 720c-3 0-6-2-9-1-4 0-10 7-12 10-3 5-5 14-4 19 0 4 2 7 3 10 2 4 1 7 4 10 7 11 24 5 30 18 1 1 5 7 3 9-3 2-17 0-21 0-11 0-21-7-31-12-6-3-15-3-22-4-5 0-11-3-16-2-15 4-29 22-29 36 0 6 0 14 6 17 8 3 25-1 32-4 5-2 9-6 15-7 12-2 24 5 36 7 18 4 37 0 52-11 5-4 17-16 18-22 1-3-1-9-1-12l-1-11c-1-5-5-9-7-15v-14c-1-3-7-9-9-10-10-8-25-8-37-11ZM674 704h-8c-5 2-21 8-16 16 4 7 21 14 28 9 3-2 9-11 10-14 4-9-1-14-10-14l-6 1c-1 1 1 2 2 2ZM360 891c-3-3-4-8-5-12l-8-23-6-19c-8-15-17-13-30-20-9-6-13-13-19-20-8-8-19-8-28-13-10-6-15-13-27-14s-25 1-36 3c-38 7-68 26-79 65-3 13-2 26-1 39 0 10-1 25 7 33 21 21 55 7 81 5 8-1 25-2 32 2l7 5c4 3 9 5 13 6 11 1 21-2 31-3h11l19-7 14-4c6-3 12-8 17-13 6-5 15-10 17-18l2-9M755 430c-2 2-5 1-8 1-6 0-17 0-18 8-1 12 13 19 21 24 3 3 3 4 6 5 6 1 12-3 17-5l13-2h2c2-2-3-5-5-7l-7-5-19-15c-1-1-1-5-2-4ZM766 376c-2-2-6-5-9-5l-6 4c-7 8 2 21 10 24l8 2 7 1c3 0 8 1 6-3-3-7-8-13-12-18-3-2-3-3-4-5Z"/>
  </g>
</g>
<use x="121" y="1287" xlink:href="#stain3" style="opacity:0.19" />
<use x="1090" y="1995" xlink:href="#stain2" style="opacity:0.46" />
<use x="1565" y="388" xlink:href="#stain0" style="opacity:0.44" />
<use x="228" y="1171" xlink:href="#stain0" style="opacity:0.33" />
<use x="1115" y="1237" xlink:href="#stain3" style="opacity:0.39" />
<use x="1443" y="1573" xlink:href="#stain2" style="opacity:0.26" />
<use x="91" y="1805" xlink:href="#stain2" style="opacity:0.10" />
<use x="148" y="1172" xlink:href="#stain1" style="opacity:0.14" />
<use x="1034" y="522" xlink:href="#stain1" style="opacity:0.41" />
<use x="857" y="516" xlink:href="#stain3" style="opacity:0.23" />
<use x="332" y="863" xlink:href="#stain3" style="opacity:0.22" />
<use x="209" y="129" xlink:href="#stain2" style="opacity:0.11" />
<use x="1371" y="964" xlink:href="#stain1" style="opacity:0.36" />
<use x="880" y="1296" xlink:href="#stain1" style="opacity:0.37" />
<use x="211" y="330" xlink:href="#stain0" style="opacity:0.45" />
<use x="310" y="197" xlink:href="#stain2" style="opacity:0.36" />
<use x="394" y="472" xlink:href="#stain1" style="opacity:0.23" />
<use x="843" y="116" xlink:href="#stain3" style="opacity:0.44" />
<use x="400" y="298" xlink:href="#stain0" style="opacity:0.39" />
<use x="1529" y="1194" xlink:href="#stain2" style="opacity:0.38" />
<use x="278" y="847" xlink:href="#stain3" style="opacity:0.38" />
<use x="462" y="1779" xlink:href="#stain3" style="opacity:0.17" />
<use x="318" y="828" xlink:href="#stain2" style="opacity:0.38" />
<use x="864" y="1489" xlink:href="#stain3" style="opacity:0.20" />
<use x="1420" y="593" xlink:href="#stain2" style="opacity:0.23" />
<use x="967" y="1565" xlink:href="#stain3" style="opacity:0.37" />
<use x="1386" y="364" xlink:href="#stain1" style="opacity:0.36" />
<use x="869" y="1078" xlink:href="#stain2" style="opacity:0.44" />
<use x="454" y="850" xlink:href="#stain3" style="opacity:0.28" />
<use x="1104" y="1430" xlink:href="#stain1" style="opacity:0.39" />
<use x="686" y="1951" xlink:href="#stain3" style="opacity:0.28" />
<use x="813" y="1628" xlink:href="#stain1" style="opacity:0.31" />
<use x="591" y="1400" xlink:href="#stain0" style="opacity:0.40" />
<use x="522" y="875" xlink:href="#stain0" style="opacity:0.34" />
<use x="406" y="1451" xlink:href="#stain3" style="opacity:0.16" />
<use x="466" y="75" xlink:href="#stain1" style="opacity:0.34" />
<use x="1526" y="1009" xlink:href="#stain2" style="opacity:0.37" />
<use x="1149" y="1565" xlink:href="#stain1" style="opacity:0.25" />
<use x="312" y="485" xlink:href="#stain2" style="opacity:0.33" />
<use x="281" y="1782" xlink:href="#stain3" style="opacity:0.43" />
<use x="607" y="2002" xlink:href="#stain3" style="opacity:0.41" />
<use x="901" y="1493" xlink:href="#stain3" style="opacity:0.24" />
<use x="503" y="1892" xlink:href="#stain3" style="opacity:0.39" />
<use x="353" y="1434" xlink:href="#stain2" style="opacity:0.29" />
<use x="1404" y="1700" xlink:href="#stain0" style="opacity:0.40" />
<use x="1124" y="1538" xlink:href="#stain1" style="opacity:0.27" />
<use x="341" y="1244" xlink:href="#stain1" style="opacity:0.16" />
<use x="280" y="421" xlink:href="#stain3" style="opacity:0.49" />
<use x="1286" y="1307" xlink:href="#stain1" style="opacity:0.31" />
<use x="349" y="1390" xlink:href="#stain3" style="opacity:0.23" />
<use x="1385" y="59" xlink:href="#stain3" style="opacity:0.10" />
<use x="193" y="1319" xlink:href="#stain3" style="opacity:0.43" />
<use x="999" y="2029" xlink:href="#stain0" style="opacity:0.15" />
<use x="603" y="574" xlink:href="#stain3" style="opacity:0.15" />
<use x="335" y="260" xlink:href="#stain3" style="opacity:0.33" />
<use x="1145" y="1711" xlink:href="#stain1" style="opacity:0.20" />
<use x="791" y="1076" xlink:href="#stain3" style="opacity:0.30" />
<use x="1505" y="506" xlink:href="#stain1" style="opacity:0.46" />
<use x="529" y="765" xlink:href="#stain1" style="opacity:0.42" />
<use x="1534" y="861" xlink:href="#stain1" style="opacity:0.30" />
<use x="1536" y="234" xlink:href="#stain3" style="opacity:0.18" />
<use x="221" y="747" xlink:href="#stain0" style="opacity:0.49" />
<use x="1534" y="723" xlink:href="#stain3" style="opacity:0.16" />
<use x="460" y="1250" xlink:href="#stain2" style="opacity:0.21" />
<use x="471" y="2027" xlink:href="#stain2" style="opacity:0.17" />
<use x="1289" y="1479" xlink:href="#stain2" style="opacity:0.27" />
<use x="1365" y="1091" xlink:href="#stain3" style="opacity:0.41" />
<use x="291" y="2010" xlink:href="#stain1" style="opacity:0.19" />
<use x="985" y="1829" xlink:href="#stain3" style="opacity:0.28" />
<use x="932" y="564" xlink:href="#stain0" style="opacity:0.18" />
<use x="568" y="1664" xlink:href="#stain1" style="opacity:0.17" />
<use x="596" y="675" xlink:href="#stain0" style="opacity:0.15" />
<use x="1281" y="1248" xlink:href="#stain3" style="opacity:0.38" />
<use x="915" y="912" xlink:href="#stain3" style="opacity:0.48" />
<use x="1302" y="177" xlink:href="#stain0" style="opacity:0.14" />
<use x="365" y="1224" xlink:href="#stain3" style="opacity:0.16" />
<use x="179" y="427" xlink:href="#stain1" style="opacity:0.26" />
<use x="504" y="1520" xlink:href="#stain1" style="opacity:0.15" />
<use x="155" y="247" xlink:href="#stain0" style="opacity:0.40" />
<use x="878" y="1851" xlink:href="#stain1" style="opacity:0.15" />
<use x="617" y="1699" xlink:href="#stain0" style="opacity:0.34" />
<use x="792" y="99" xlink:href="#stain2" style="opacity:0.38" />
<use x="588" y="1596" xlink:href="#stain0" style="opacity:0.46" />
<use x="761" y="1769" xlink:href="#stain1" style="opacity:0.13" />
<use x="1528" y="1259" xlink:href="#stain2" style="opacity:0.17" />
<use x="1193" y="911" xlink:href="#stain0" style="opacity:0.32" />
<use x="1451" y="904" xlink:href="#stain3" style="opacity:0.21" />
<use x="1108" y="1722" xlink:href="#stain2" style="opacity:0.27" />
<use x="1369" y="1167" xlink:href="#stain2" style="opacity:0.40" />
<use x="1148" y="710" xlink:href="#stain3" style="opacity:0.13" />
<use x="1454" y="1540" xlink:href="#stain2" style="opacity:0.30" />
<use x="327" y="1679" xlink:href="#stain1" style="opacity:0.12" />
<use x="797" y="1615" xlink:href="#stain3" style="opacity:0.21" />
<use x="786" y="1404" xlink:href="#stain3" style="opacity:0.13" />
<use x="874" y="1844" xlink:href="#stain1" style="opacity:0.20" />
<use x="295" y="1223" xlink:href="#stain2" style="opacity:0.49" />
<use x="1543" y="2078" xlink:href="#stain1" style="opacity:0.34" />
<use x="1243" y="1001" xlink:href="#stain2" style="opacity:0.28" />
<use x="114" y="60" xlink:href="#stain2" style="opacity:0.25" />
<use x="337" y="1844" xlink:href="#stain2" style="opacity:0.16" />
</svg>
